<svg width="30" height="30" viewBox="0 0 30 30" fill="none" xmlns="http://www.w3.org/2000/svg">
<path d="M14.8913 16.1648C14.9224 16.1648 14.9534 16.1648 14.9907 16.1648C15.0031 16.1648 15.0156 16.1648 15.028 16.1648C15.0466 16.1648 15.0715 16.1648 15.0901 16.1648C16.9104 16.1338 18.3827 15.4939 19.4699 14.27C21.8617 11.5738 21.4641 6.95175 21.4206 6.51066C21.2653 3.19942 19.6998 1.61524 18.4076 0.875958C17.4446 0.323048 16.3202 0.0248499 15.0653 0H15.0218C15.0156 0 15.0031 0 14.9969 0H14.9596C14.2701 0 12.9157 0.111824 11.6173 0.851108C10.3127 1.59039 8.72233 3.17457 8.56702 6.51066C8.52353 6.95175 8.12593 11.5738 10.5177 14.27C11.5987 15.4939 13.0711 16.1338 14.8913 16.1648ZM10.2257 6.66598C10.2257 6.64734 10.232 6.6287 10.232 6.61628C10.437 2.16194 13.5991 1.68358 14.9534 1.68358H14.9783C14.9907 1.68358 15.0093 1.68358 15.028 1.68358C16.7053 1.72085 19.5569 2.40422 19.7495 6.61628C19.7495 6.63491 19.7495 6.65355 19.7557 6.66598C19.7619 6.70946 20.1967 10.9339 18.2212 13.158C17.4384 14.0402 16.3947 14.475 15.0218 14.4875C15.0093 14.4875 15.0031 14.4875 14.9907 14.4875C14.9783 14.4875 14.9721 14.4875 14.9596 14.4875C13.5929 14.475 12.543 14.0402 11.7664 13.158C9.79708 10.9464 10.2195 6.70325 10.2257 6.66598Z" fill="#55CB95"/>
<path d="M27.7573 23.831C27.7573 23.8248 27.7573 23.8186 27.7573 23.8124C27.7573 23.7627 27.7511 23.713 27.7511 23.6571C27.7138 22.427 27.6331 19.5506 24.9369 18.6312C24.9182 18.625 24.8934 18.6188 24.8747 18.6126C22.0729 17.8981 19.7432 16.2829 19.7184 16.2643C19.3394 15.9971 18.8176 16.0903 18.5504 16.4693C18.2833 16.8482 18.3765 17.3701 18.7555 17.6372C18.8611 17.7118 21.3336 19.4326 24.4274 20.2278C25.8749 20.7434 26.0365 22.2903 26.08 23.7068C26.08 23.7627 26.08 23.8124 26.0862 23.8621C26.0924 24.4212 26.0551 25.2848 25.9557 25.7817C24.9493 26.3533 21.0044 28.3289 15.0031 28.3289C9.02673 28.3289 5.05697 26.3471 4.04433 25.7755C3.94493 25.2785 3.90145 24.415 3.91387 23.8559C3.91387 23.8062 3.92008 23.7565 3.92008 23.7006C3.96357 22.2841 4.1251 20.7372 5.5726 20.2216C8.66641 19.4264 11.139 17.6993 11.2446 17.631C11.6235 17.3639 11.7167 16.842 11.4496 16.4631C11.1825 16.0841 10.6606 15.9909 10.2817 16.258C10.2568 16.2767 7.93955 17.8919 5.1253 18.6064C5.10045 18.6126 5.08182 18.6188 5.06318 18.625C2.36697 19.5506 2.28621 22.427 2.24893 23.6509C2.24893 23.7068 2.24893 23.7565 2.24272 23.8062C2.24272 23.8124 2.24272 23.8186 2.24272 23.8248C2.23651 24.1479 2.23029 25.8066 2.55955 26.6391C2.62168 26.8006 2.7335 26.9373 2.8826 27.0305C3.06898 27.1547 7.53574 30 15.0093 30C22.4829 30 26.9497 27.1485 27.1361 27.0305C27.279 26.9373 27.397 26.8006 27.4591 26.6391C27.7697 25.8128 27.7635 24.1541 27.7573 23.831Z" fill="#55CB95"/>
</svg>
