<svg width="30" height="30" viewBox="0 0 30 30" fill="none" xmlns="http://www.w3.org/2000/svg">
<g clip-path="url(#clip0)">
<path d="M29.7232 13.6029L15.6054 0.978369C15.5808 0.953688 15.5561 0.935176 15.5252 0.916665C15.2167 0.620489 14.7231 0.608148 14.396 0.898154L0.278286 13.5227C-0.0672533 13.8312 -0.0919347 14.3557 0.210413 14.7012C0.377012 14.8863 0.605315 14.9789 0.833618 14.9789C1.03107 14.9789 1.22852 14.911 1.38895 14.7691L3.93113 12.4922V12.9365V19.5264V27.2147C3.93113 28.3686 4.86903 29.3126 6.02905 29.3126C6.04756 29.3126 6.05991 29.3126 6.07842 29.3126C6.09693 29.3126 6.10927 29.3126 6.12778 29.3126H10.484C11.57 29.3126 12.4524 28.4303 12.4524 27.3443V19.8596C12.4524 19.693 12.5881 19.5573 12.7547 19.5573H17.2529C17.4195 19.5573 17.5553 19.693 17.5553 19.8596V27.3443C17.5553 28.4303 18.4376 29.3126 19.5236 29.3126H23.9786C25.151 29.3126 26.0765 28.1588 26.0765 26.684V19.8226V17.7247V12.5725L28.6187 14.8493C28.7791 14.9912 28.9766 15.0591 29.174 15.0591C29.4023 15.0591 29.6306 14.9666 29.7972 14.7814C30.0934 14.4359 30.0626 13.9114 29.7232 13.6029ZM24.4044 17.7185V19.8165V26.6717C24.4044 27.2702 24.1082 27.6343 23.9724 27.6343H19.5174C19.3508 27.6343 19.2151 27.4985 19.2151 27.3319V19.8596C19.2151 18.7737 18.3327 17.8913 17.2467 17.8913H12.7486C11.6626 17.8913 10.7802 18.7737 10.7802 19.8596V27.3443C10.7802 27.5109 10.6445 27.6466 10.4779 27.6466H6.12161C6.1031 27.6466 6.09076 27.6466 6.07225 27.6466C6.05373 27.6466 6.04139 27.6466 6.02288 27.6466C5.78841 27.6466 5.59096 27.4553 5.59096 27.2147V19.5203V12.9303V10.999L14.9576 2.63202L24.4044 11.0792V17.7185Z" fill="#C7C7C7"/>
</g>
<defs>
<clipPath id="clip0">
<rect width="30" height="30" fill="white"/>
</clipPath>
</defs>
</svg>
