<svg width="30" height="30" viewBox="0 0 30 30" fill="none" xmlns="http://www.w3.org/2000/svg">
<path d="M9.00604 19.7527H25.5361C27.4104 19.7527 28.9395 18.2236 28.9395 16.3493V9.39448C28.9395 9.38831 28.9395 9.37598 28.9395 9.36982C28.9395 9.35132 28.9395 9.33899 28.9395 9.32049C28.9395 9.30816 28.9395 9.29583 28.9333 9.2835C28.9333 9.27117 28.9272 9.25267 28.9272 9.24034C28.9272 9.22801 28.921 9.21568 28.921 9.20335C28.9148 9.19101 28.9148 9.17868 28.9087 9.16019C28.9025 9.14785 28.9025 9.13552 28.8963 9.12319C28.8902 9.11086 28.8902 9.09853 28.884 9.0862C28.8778 9.07387 28.8717 9.06154 28.8655 9.04304C28.8593 9.03071 28.8532 9.01838 28.847 9.01221C28.8408 8.99988 28.8347 8.98755 28.8285 8.97522C28.8223 8.96289 28.8162 8.95672 28.81 8.94439C28.8039 8.93206 28.7915 8.91973 28.7854 8.9074C28.7792 8.89506 28.773 8.8889 28.7607 8.87657C28.7545 8.86424 28.7422 8.85807 28.736 8.84574C28.7299 8.83341 28.7175 8.82724 28.7114 8.81491C28.7052 8.80258 28.6929 8.79641 28.6867 8.79025C28.6744 8.77792 28.6682 8.77175 28.6559 8.75942C28.6435 8.75325 28.6374 8.74092 28.6251 8.73476C28.6127 8.72859 28.6004 8.71626 28.5881 8.7101C28.5757 8.70393 28.5696 8.69776 28.5572 8.6916C28.5449 8.68543 28.5326 8.67927 28.5202 8.66694C28.5079 8.66077 28.4956 8.6546 28.4832 8.64844C28.4709 8.64227 28.4586 8.63611 28.4462 8.62994C28.4339 8.62378 28.4216 8.61761 28.4093 8.61145C28.3969 8.60528 28.3846 8.60528 28.3723 8.59911C28.3599 8.59295 28.3414 8.58678 28.3291 8.58678C28.3168 8.58678 28.3044 8.58062 28.2983 8.58062C28.2798 8.57445 28.2674 8.57445 28.2489 8.57445C28.2428 8.57445 28.2366 8.56829 28.2243 8.56829L7.27351 5.67661V2.75411C7.27351 2.72328 7.27351 2.69245 7.26734 2.66779C7.26734 2.66162 7.26734 2.65546 7.26117 2.64312C7.26117 2.62463 7.25501 2.60613 7.25501 2.58763C7.24884 2.56914 7.24884 2.55681 7.24268 2.53831C7.24268 2.52598 7.23651 2.51981 7.23651 2.50748C7.23035 2.48898 7.22418 2.47049 7.21801 2.45199C7.21801 2.44582 7.21185 2.43349 7.21185 2.42733C7.20568 2.40883 7.19952 2.3965 7.18719 2.378C7.18102 2.37184 7.18102 2.35951 7.17486 2.35334C7.16869 2.34101 7.16252 2.32868 7.15019 2.31635C7.14403 2.30402 7.13786 2.29785 7.1317 2.28552C7.12553 2.27319 7.11936 2.26702 7.1132 2.25469C7.10703 2.24236 7.0947 2.23003 7.08854 2.2177C7.08237 2.21153 7.07621 2.20537 7.07004 2.1992C7.05771 2.18687 7.04538 2.17454 7.03305 2.16221C7.02688 2.15604 7.02071 2.14987 7.01455 2.14371C7.00222 2.13138 6.98989 2.11905 6.97139 2.10672C6.96522 2.10055 6.95289 2.09438 6.94673 2.08822C6.9344 2.07589 6.92206 2.06972 6.90973 2.05739C6.89124 2.04506 6.87274 2.03273 6.86041 2.02656C6.85424 2.0204 6.84808 2.0204 6.84191 2.01423C6.81725 2.0019 6.78642 1.98957 6.76176 1.97724L2.2177 0.0658951C1.79227 -0.112908 1.30518 0.0843919 1.12638 0.50982C0.947578 0.935248 1.14488 1.42233 1.57031 1.60113L5.60262 3.30285V7.07621V7.67427V12.2615V16.3616V21.5408C5.60262 23.2671 6.8974 24.6975 8.56829 24.9133C8.26617 25.4189 8.08737 26.0108 8.08737 26.6397C8.08737 28.4956 9.59794 30 11.4476 30C13.2973 30 14.8079 28.4894 14.8079 26.6397C14.8079 26.0232 14.6414 25.4374 14.3455 24.9442H21.8305C21.5346 25.4436 21.3681 26.0232 21.3681 26.6397C21.3681 28.4956 22.8787 30 24.7284 30C26.5781 30 28.0886 28.4894 28.0886 26.6397C28.0886 24.79 26.5781 23.2795 24.7284 23.2795H9.00604C8.04421 23.2795 7.26734 22.4964 7.26734 21.5408V19.2841C7.77292 19.5801 8.37099 19.7527 9.00604 19.7527ZM13.1493 26.6336C13.1493 27.5707 12.3848 28.3291 11.4538 28.3291C10.5228 28.3291 9.75825 27.5646 9.75825 26.6336C9.75825 25.7025 10.5228 24.938 11.4538 24.938C12.3848 24.938 13.1493 25.6964 13.1493 26.6336ZM26.4301 26.6336C26.4301 27.5707 25.6656 28.3291 24.7345 28.3291C23.8035 28.3291 23.039 27.5646 23.039 26.6336C23.039 25.7025 23.8035 24.938 24.7345 24.938C25.6656 24.938 26.4301 25.6964 26.4301 26.6336ZM25.5361 18.088H9.00604C8.04421 18.088 7.26734 17.305 7.26734 16.3493V12.2492V7.66194V7.35366L27.2748 10.1097V16.3431C27.2748 17.3111 26.4917 18.088 25.5361 18.088Z" fill="#55CB95"/>
</svg>
